<?xml version="1.0" encoding="iso-8859-1"?>
<!-- Uploaded to: SVG Repo, www.svgrepo.com, Generator: SVG Repo Mixer Tools -->
<svg fill="#000000" height="800px" width="800px" version="1.1" id="Layer_1" xmlns="http://www.w3.org/2000/svg" xmlns:xlink="http://www.w3.org/1999/xlink" 
	 viewBox="0 0 512 512" xml:space="preserve">
<g>
	<g>
		<g>
			<path d="M503.692,75.731h-49.05c-4.466,0-8.084,3.618-8.084,8.084s3.619,8.084,8.084,8.084h40.965v328.202H223.645H115.047
				H76.124v-13.465v-24.792v-21.423V251.823V230.4v-24.792v-30.72v-64.674V91.899h352.645c4.466,0,8.084-3.619,8.084-8.084
				s-3.618-8.084-8.084-8.084H76.124V8.084C76.124,3.619,72.506,0,68.04,0H8.308C3.843,0,0.224,3.619,0.224,8.084
				s3.618,8.084,8.084,8.084h51.647v67.646v18.316H38.174c-4.466,0-8.084,3.618-8.084,8.084v64.674c0,4.466,3.619,8.084,8.084,8.084
				h21.782v14.552H38.174c-4.466,0-8.084,3.618-8.084,8.084V230.4c0,4.466,3.619,8.084,8.084,8.084h21.782v5.255H38.174
				c-4.466,0-8.084,3.618-8.084,8.084v108.598c0,4.466,3.619,8.084,8.084,8.084h21.782v5.255H38.174
				c-4.466,0-8.084,3.618-8.084,8.084v24.792c0,4.466,3.619,8.084,8.084,8.084h21.782v13.465v75.731
				c0,4.466,3.618,8.084,8.084,8.084c4.466,0,8.084-3.618,8.084-8.084v-67.646h30.839v21.782c0,4.466,3.618,8.084,8.084,8.084
				h61.145c4.466,0,8.084-3.618,8.084-8.084c0-4.466-3.618-8.084-8.084-8.084h-53.06v-13.698h92.429v13.698h-12.425
				c-4.466,0-8.084,3.618-8.084,8.084c0,4.466,3.618,8.084,8.084,8.084h20.509c4.466,0,8.084-3.618,8.084-8.084v-21.782h271.963
				c4.466,0,8.084-3.619,8.084-8.084V83.815C511.776,79.349,508.157,75.731,503.692,75.731z M59.956,398.552H46.258v-8.623h13.698
				V398.552z M59.956,352.337H46.258v-92.43h13.698V352.337z M59.956,222.316H46.258v-8.623h13.698V222.316z M59.956,166.804H46.258
				v-48.505h13.698V166.804z"/>
			<path d="M116.725,156.934c13.473,0,24.434-10.96,24.434-24.433s-10.961-24.434-24.434-24.434
				c-13.473,0-24.433,10.961-24.433,24.434S103.253,156.934,116.725,156.934z M116.725,124.236c4.558,0,8.265,3.707,8.265,8.265
				c0,4.556-3.707,8.264-8.265,8.264c-4.557,0-8.264-3.708-8.264-8.264C108.461,127.943,112.169,124.236,116.725,124.236z"/>
			<path d="M116.725,403.932c13.473,0,24.434-10.96,24.434-24.433s-10.961-24.434-24.434-24.434
				c-13.473,0-24.433,10.961-24.433,24.434S103.253,403.932,116.725,403.932z M116.725,371.234c4.558,0,8.265,3.708,8.265,8.265
				c0,4.556-3.707,8.264-8.265,8.264c-4.557,0-8.264-3.708-8.264-8.264C108.461,374.942,112.169,371.234,116.725,371.234z"/>
			<path d="M455.005,108.068c-13.473,0-24.433,10.961-24.433,24.434s10.96,24.433,24.433,24.433s24.434-10.96,24.434-24.433
				S468.478,108.068,455.005,108.068z M455.005,140.765c-4.557,0-8.264-3.708-8.264-8.264c0-4.558,3.707-8.265,8.264-8.265
				c4.558,0,8.265,3.707,8.265,8.265C463.271,137.058,459.564,140.765,455.005,140.765z"/>
			<path d="M455.005,403.932c13.473,0,24.434-10.96,24.434-24.433s-10.961-24.434-24.434-24.434s-24.433,10.961-24.433,24.434
				S441.533,403.932,455.005,403.932z M455.005,371.234c4.558,0,8.265,3.708,8.265,8.265c0,4.556-3.707,8.264-8.265,8.264
				c-4.557,0-8.264-3.708-8.264-8.264C446.741,374.942,450.448,371.234,455.005,371.234z"/>
			<path d="M328.28,354.359c53.623,0,97.249-43.625,97.249-97.247c0-53.622-43.626-97.247-97.249-97.247
				c-53.622,0-97.247,43.625-97.247,97.247C231.034,310.734,274.658,354.359,328.28,354.359z M313.235,283.532
				c-0.078,0.132-0.155,0.266-0.233,0.402c-0.656,1.148-1.283,2.311-1.873,3.492c-0.033,0.067-0.073,0.13-0.107,0.198
				c-0.023,0.044-0.037,0.092-0.057,0.137c-4.784,9.696-7.336,20.432-7.336,31.401c0,5.069,0.527,10.057,1.573,14.928
				c-12.037-3.683-23.156-10.204-32.314-19.03c1.218-16.392,9.711-31.332,23.242-40.798c0.214-0.005,0.428-0.018,0.642-0.022
				c0.437-0.005,0.872-0.012,1.306-0.006c0.192,0.002,0.384,0.009,0.576,0.014c0.696,0.015,1.392,0.043,2.085,0.084
				c0.539,0.032,1.077,0.065,1.615,0.113c0.285,0.025,0.567,0.06,0.85,0.091c0.372,0.039,0.744,0.084,1.116,0.13
				c0.008,0.011,0.016,0.02,0.025,0.031c0.287,0.383,0.584,0.757,0.889,1.124c0.098,0.117,0.201,0.231,0.3,0.346
				c0.229,0.266,0.46,0.531,0.698,0.79c0.105,0.113,0.212,0.223,0.319,0.334c0.248,0.261,0.5,0.517,0.758,0.769
				c0.092,0.089,0.184,0.177,0.278,0.265c0.293,0.278,0.591,0.55,0.895,0.816c0.059,0.052,0.12,0.104,0.179,0.155
				c0.363,0.313,0.734,0.615,1.112,0.911c0.003,0.002,0.007,0.005,0.01,0.008c1.223,0.951,2.521,1.81,3.89,2.558
				C313.522,283.023,313.382,283.279,313.235,283.532z M328.28,338.191c-1.725,0-3.431-0.072-5.129-0.179
				c-1.599-4.347-2.635-8.846-3.084-13.46c2.928,4.923,6.452,9.482,10.513,13.58C329.814,338.154,329.052,338.191,328.28,338.191z
				 M367.743,327.32c-5.203,2.927-10.709,5.258-16.407,6.948c-14.26-9.195-23.387-24.347-24.854-41.309
				c0.158-0.294,0.323-0.587,0.49-0.88c0.162-0.284,0.319-0.571,0.485-0.852c0.359-0.607,0.73-1.207,1.113-1.8
				c0.158-0.246,0.328-0.485,0.49-0.728c0.258-0.385,0.515-0.77,0.783-1.148c0.183-0.259,0.372-0.513,0.559-0.769
				c0.17-0.232,0.344-0.461,0.518-0.691c0.059-0.006,0.117-0.018,0.178-0.026c0.398-0.05,0.794-0.105,1.187-0.17
				c0.176-0.029,0.349-0.061,0.524-0.094c0.292-0.054,0.582-0.111,0.871-0.174c0.262-0.056,0.522-0.117,0.78-0.181
				c0.178-0.044,0.356-0.089,0.532-0.137c0.355-0.094,0.706-0.194,1.056-0.301c0.052-0.016,0.102-0.032,0.154-0.049
				c2.264-0.706,4.425-1.675,6.434-2.904c0.098,0.176,0.203,0.347,0.303,0.522c0.179,0.315,0.361,0.626,0.544,0.939
				c0.196,0.333,0.393,0.665,0.595,0.994c0.222,0.362,0.448,0.722,0.677,1.08c0.169,0.266,0.337,0.534,0.511,0.798
				c0.08,0.122,0.155,0.246,0.236,0.368c0.032,0.049,0.072,0.092,0.106,0.139c6.003,8.982,14.02,16.553,23.511,22.033
				c4.591,2.651,9.388,4.757,14.355,6.307C378.786,319.884,373.525,323.927,367.743,327.32z M396.02,301.594
				c-4.873-0.766-9.578-2.185-14.069-4.232c6.128-0.071,12.213-0.946,18.095-2.583C398.811,297.122,397.468,299.395,396.02,301.594z
				 M406.457,274.959c-7.824,4.095-16.528,6.249-25.32,6.249c-0.001,0-0.003,0-0.003,0c-8.011,0-16.015-1.782-23.281-5.17
				c-0.181-0.295-0.358-0.594-0.532-0.894c-0.158-0.271-0.321-0.539-0.475-0.813c-0.347-0.617-0.682-1.24-1.006-1.87
				c-0.138-0.269-0.265-0.543-0.398-0.815c-0.199-0.404-0.398-0.808-0.586-1.218c-0.137-0.296-0.265-0.595-0.397-0.894
				c-0.113-0.258-0.223-0.516-0.332-0.776c1.512-3.509,2.355-7.372,2.355-11.429c0-0.244-0.013-0.484-0.018-0.726
				c0.314,0.004,0.626-0.003,0.94-0.004c0.044,0,0.088,0.003,0.133,0.003c0.108,0,0.217-0.004,0.324-0.005
				c0.495-0.003,0.99-0.01,1.484-0.023c0.48-0.012,0.958-0.032,1.437-0.054c0.204-0.01,0.409-0.017,0.613-0.029
				c0.199-0.011,0.401-0.015,0.6-0.028c0.087-0.005,0.172-0.025,0.26-0.033c10.766-0.739,21.327-3.892,30.748-9.332
				c4.584-2.646,8.802-5.743,12.623-9.263C408.771,249.895,409.082,262.657,406.457,274.959z M396.284,213.043
				c1.442,2.218,2.778,4.51,4.002,6.869c-3.129,3.915-6.759,7.343-10.836,10.256C392.454,224.805,394.76,219.054,396.284,213.043z
				 M341.771,231.164c0.092-0.158,0.182-0.317,0.273-0.475c0.643-1.126,1.258-2.268,1.838-3.427
				c0.038-0.077,0.083-0.149,0.121-0.225c0.025-0.051,0.041-0.105,0.066-0.155c4.778-9.691,7.329-20.421,7.329-31.383
				c0-5.292-0.572-10.492-1.711-15.564c12.016,3.305,23.223,9.418,32.566,17.842c-0.702,17.119-9.283,32.785-23.355,42.623
				c-0.212,0.005-0.425,0.018-0.638,0.022c-0.44,0.005-0.88,0.012-1.318,0.006c-0.178-0.002-0.356-0.009-0.534-0.013
				c-0.808-0.017-1.615-0.054-2.419-0.106c-0.434-0.029-0.869-0.053-1.302-0.092c-0.298-0.026-0.595-0.064-0.893-0.095
				c-0.363-0.039-0.725-0.082-1.088-0.127c-0.015-0.021-0.032-0.039-0.047-0.059c-0.281-0.373-0.571-0.738-0.869-1.097
				c-0.094-0.113-0.193-0.222-0.289-0.333c-0.234-0.273-0.47-0.543-0.712-0.806c-0.098-0.106-0.199-0.209-0.299-0.314
				c-0.257-0.269-0.516-0.536-0.784-0.794c-0.084-0.081-0.168-0.161-0.252-0.24c-0.302-0.287-0.609-0.567-0.922-0.84
				c-0.052-0.045-0.105-0.091-0.156-0.136c-1.544-1.328-3.224-2.502-5.024-3.485C341.496,231.651,341.631,231.406,341.771,231.164z
				 M336.896,248.653c0.307,0.331,0.596,0.68,0.868,1.043c0.056,0.075,0.115,0.151,0.17,0.227c0.305,0.428,0.592,0.874,0.845,1.343
				c0.252,0.468,0.467,0.951,0.656,1.44c0.029,0.075,0.056,0.153,0.084,0.23c0.168,0.461,0.313,0.928,0.426,1.402
				c0.008,0.032,0.017,0.065,0.025,0.097c0.247,1.071,0.355,2.168,0.322,3.261c0,0.005,0,0.011-0.001,0.016
				c-0.016,0.54-0.068,1.08-0.153,1.615c-0.002,0.016-0.004,0.031-0.008,0.047c-0.175,1.081-0.488,2.144-0.94,3.159
				c-0.01,0.021-0.02,0.041-0.03,0.061c-0.199,0.443-0.433,0.874-0.686,1.297c-0.055,0.092-0.11,0.184-0.167,0.275
				c-0.237,0.375-0.494,0.734-0.763,1.078c-0.05,0.063-0.093,0.13-0.143,0.192c-0.292,0.359-0.608,0.693-0.933,1.014
				c-0.159,0.156-0.327,0.302-0.494,0.45c-0.185,0.164-0.374,0.324-0.567,0.476c-0.192,0.151-0.386,0.299-0.586,0.439
				c-0.206,0.143-0.418,0.276-0.632,0.406c-0.188,0.115-0.37,0.237-0.563,0.343c-0.398,0.216-0.806,0.411-1.226,0.583
				c-0.135,0.056-0.276,0.1-0.414,0.152c-0.342,0.127-0.688,0.245-1.041,0.342c-0.129,0.037-0.261,0.069-0.392,0.101
				c-0.407,0.098-0.82,0.18-1.24,0.238c-0.078,0.011-0.154,0.026-0.232,0.036c-0.523,0.064-1.052,0.1-1.588,0.1l-0.149-0.002
				c-0.123-0.001-0.244-0.014-0.365-0.018c-0.472-0.019-0.941-0.065-1.403-0.136c-0.076-0.012-0.15-0.022-0.224-0.034
				c-1.601-0.276-3.124-0.854-4.493-1.689c-0.037-0.023-0.074-0.044-0.111-0.068c-0.901-0.563-1.732-1.237-2.473-2.009
				c-0.05-0.052-0.096-0.107-0.144-0.16c-0.308-0.332-0.598-0.682-0.871-1.049c-0.056-0.074-0.113-0.148-0.168-0.224
				c-0.3-0.419-0.578-0.857-0.828-1.316c-0.031-0.058-0.059-0.117-0.092-0.175c-0.069-0.132-0.129-0.268-0.194-0.402
				c-0.192-0.402-0.364-0.812-0.512-1.228c-0.022-0.061-0.046-0.122-0.068-0.184c-0.505-1.5-0.725-3.074-0.659-4.638
				c0.001-0.037,0.003-0.074,0.005-0.111c0.081-1.569,0.447-3.126,1.098-4.585c0.02-0.045,0.044-0.088,0.065-0.134
				c0.185-0.402,0.397-0.794,0.626-1.179c0.06-0.101,0.121-0.203,0.183-0.301c0.233-0.368,0.484-0.719,0.749-1.057
				c0.054-0.068,0.101-0.141,0.156-0.208c0.292-0.357,0.606-0.69,0.93-1.01c0.158-0.156,0.327-0.302,0.494-0.449
				c0.188-0.158,0.377-0.32,0.572-0.473c0.19-0.149,0.382-0.295,0.579-0.433c0.212-0.149,0.432-0.286,0.653-0.42
				c0.18-0.11,0.355-0.227,0.54-0.329c0.402-0.219,0.815-0.416,1.238-0.59c0.125-0.052,0.257-0.093,0.384-0.141
				c0.352-0.131,0.71-0.252,1.076-0.354c0.122-0.033,0.245-0.065,0.369-0.095c0.417-0.101,0.84-0.184,1.27-0.245
				c0.07-0.01,0.138-0.024,0.209-0.032c0.525-0.065,1.056-0.101,1.595-0.101l0.147,0.002c0.124,0.002,0.245,0.013,0.366,0.018
				c0.469,0.019,0.933,0.064,1.393,0.134c0.08,0.012,0.161,0.023,0.24,0.037c1.068,0.184,2.103,0.498,3.078,0.939
				c0.008,0.003,0.014,0.006,0.022,0.01c0.474,0.216,0.932,0.462,1.377,0.733c0.042,0.026,0.085,0.051,0.126,0.077
				c0.898,0.562,1.727,1.234,2.465,2.004C336.798,248.542,336.845,248.599,336.896,248.653z M328.279,176.035
				c1.141-0.001,2.274,0.039,3.404,0.086c1.712,4.511,2.809,9.192,3.275,13.999c-3.02-5.079-6.675-9.775-10.901-13.975
				C325.455,176.073,326.863,176.035,328.279,176.035z M304.353,180.831c13.877,9.233,22.748,24.184,24.192,40.872
				c-0.162,0.296-0.329,0.592-0.497,0.887c-0.161,0.282-0.317,0.567-0.482,0.846c-0.309,0.522-0.632,1.037-0.958,1.549
				c-0.231,0.361-0.47,0.717-0.709,1.073c-0.232,0.344-0.461,0.689-0.701,1.028c-0.199,0.282-0.405,0.559-0.61,0.838
				c-0.158,0.217-0.321,0.43-0.483,0.645c-0.06,0.008-0.12,0.018-0.18,0.026c-0.398,0.05-0.792,0.105-1.185,0.169
				c-0.177,0.029-0.352,0.063-0.528,0.095c-0.29,0.054-0.578,0.11-0.864,0.172c-0.265,0.057-0.528,0.119-0.79,0.183
				c-0.174,0.043-0.347,0.087-0.52,0.134c-0.359,0.095-0.716,0.196-1.07,0.305c-0.045,0.014-0.091,0.028-0.136,0.043
				c-2.268,0.706-4.432,1.676-6.444,2.908c-0.101-0.181-0.209-0.357-0.312-0.537c-0.171-0.301-0.346-0.6-0.522-0.899
				c-0.205-0.348-0.412-0.695-0.622-1.039c-0.207-0.338-0.419-0.675-0.633-1.01c-0.185-0.292-0.371-0.584-0.561-0.873
				c-0.074-0.113-0.144-0.229-0.219-0.341c-0.03-0.045-0.068-0.084-0.098-0.129c-6.004-8.986-14.023-16.561-23.518-22.043
				c-4.23-2.443-8.644-4.424-13.207-5.934C281.637,191.134,292.507,184.594,304.353,180.831z M260.135,213.266
				c4.481,0.801,8.814,2.147,12.955,4.036c-5.6,0.066-11.175,0.801-16.593,2.181C257.619,217.351,258.835,215.28,260.135,213.266z
				 M248.316,257.331c0-6.283,0.73-12.516,2.171-18.575c7.317-3.475,15.347-5.298,23.422-5.298
				c8.004-0.001,16.002,1.78,23.265,5.165c0.179,0.293,0.355,0.59,0.528,0.886c0.16,0.274,0.326,0.545,0.481,0.821
				c0.347,0.618,0.685,1.242,1.008,1.873c0.126,0.246,0.241,0.497,0.364,0.745c0.213,0.432,0.426,0.863,0.627,1.302
				c0.126,0.273,0.245,0.549,0.365,0.824s0.237,0.551,0.355,0.828c-1.512,3.509-2.354,7.372-2.354,11.428
				c0,0.244,0.012,0.484,0.018,0.727c-0.313-0.004-0.625,0.003-0.938,0.003c-0.149,0-0.296,0.001-0.445,0.002
				c-0.52,0.003-1.039,0.01-1.559,0.025c-0.406,0.011-0.812,0.028-1.217,0.045c-0.292,0.013-0.584,0.025-0.876,0.041
				c-0.166,0.01-0.332,0.013-0.498,0.024c-0.07,0.004-0.139,0.02-0.209,0.027c-10.807,0.729-21.36,3.888-30.8,9.34
				c-4.154,2.398-8.014,5.173-11.552,8.302C249.039,269.832,248.316,263.635,248.316,257.331z M255.834,293.451
				c2.888-3.391,6.154-6.401,9.779-8.989c-2.683,4.784-4.803,9.879-6.318,15.189C258.051,297.642,256.902,295.572,255.834,293.451z"
				/>
			<path d="M328.132,387.583c72.556,0,131.584-59.029,131.584-131.583s-59.029-131.583-131.584-131.583
				c-42.571,0-80.48,20.328-104.546,51.781h-97.803c-10.378,0-18.82,8.597-18.82,19.164v122.397c0,10.568,8.442,19.165,18.82,19.165
				h98.663C248.551,367.74,286.067,387.583,328.132,387.583z M125.783,320.756c-1.462,0-2.652-1.344-2.652-2.997V195.362
				c0-1.651,1.19-2.995,2.652-2.995h87.143c-8.422,15.191-13.682,31.814-15.573,49.122c-0.047,0.433-0.1,0.865-0.143,1.299
				c-0.065,0.643-0.117,1.29-0.172,1.936c-0.056,0.664-0.11,1.328-0.156,1.995c-0.039,0.558-0.074,1.117-0.107,1.676
				c-0.046,0.807-0.082,1.617-0.114,2.429c-0.017,0.449-0.039,0.899-0.052,1.348c-0.037,1.273-0.06,2.549-0.06,3.83
				c0,1.298,0.024,2.59,0.061,3.879c0.013,0.458,0.034,0.915,0.053,1.373c0.032,0.815,0.069,1.629,0.116,2.44
				c0.033,0.575,0.069,1.148,0.109,1.72c0.046,0.653,0.1,1.303,0.156,1.953c0.057,0.675,0.112,1.349,0.18,2.022
				c0.017,0.171,0.04,0.342,0.057,0.513c1.879,17.965,7.382,35.185,16.277,50.853H125.783z M214.451,275.974
				c-0.183-1.044-0.349-2.093-0.504-3.147c-0.114-0.786-0.227-1.572-0.326-2.362c-0.073-0.58-0.136-1.163-0.2-1.746
				c-0.096-0.882-0.184-1.765-0.26-2.651c-0.033-0.378-0.072-0.756-0.101-1.135c-0.096-1.268-0.168-2.539-0.224-3.815
				c-0.015-0.355-0.028-0.709-0.041-1.065c-0.046-1.348-0.079-2.699-0.079-4.055c0-1.332,0.031-2.661,0.077-3.987
				c0.012-0.356,0.025-0.71,0.041-1.065c0.054-1.257,0.123-2.511,0.217-3.762c0.024-0.313,0.056-0.622,0.082-0.933
				c0.08-0.954,0.172-1.906,0.276-2.856c0.06-0.555,0.122-1.11,0.191-1.663c0.092-0.749,0.197-1.496,0.304-2.243
				c0.154-1.068,0.32-2.131,0.503-3.19c0.063-0.363,0.125-0.726,0.191-1.089c9.818-53.751,56.99-94.625,113.535-94.625
				c63.64,0,115.416,51.775,115.416,115.414c0,63.64-51.776,115.415-115.416,115.415c-56.542,0-103.714-40.87-113.534-94.62
				C214.548,276.522,214.499,276.248,214.451,275.974z"/>
		</g>
	</g>
</g>
</svg>